<svg xmlns="http://www.w3.org/2000/svg" viewBox="0 0 112.36535 99.52124" x="0px" y="0px"><title>shrimp</title><g data-name="Camada 2"><g data-name="Camada 1"><path d="M43.38945,23.29614a3.05106,3.05106,0,1,0,3.051,3.051A3.051,3.051,0,0,0,43.38945,23.29614Z"></path><path d="M75.598,25.09174a2.00484,2.00484,0,0,0-2.7793.92358,31.286,31.286,0,0,0-2.385,7.87305A2.00481,2.00481,0,0,0,72.233,36.19928l.001.00006a1.98681,1.98681,0,0,0,2.14625-1.65729,27.24335,27.24335,0,0,1,2.08349-6.881A1.98667,1.98667,0,0,0,75.598,25.09174Z"></path><path d="M91.782,30.47424a2.00487,2.00487,0,0,0-2.866.60358,31.29045,31.29045,0,0,0-3.25952,7.553,2.00515,2.00515,0,0,0,1.52661,2.49945l.001.00018A1.98675,1.98675,0,0,0,89.504,39.72638a27.23763,27.23763,0,0,1,2.8479-6.60144A1.98677,1.98677,0,0,0,91.782,30.47424Z"></path><path d="M73.98564,17.37H18.27544l-.07984,1.92a24.77065,24.77065,0,0,0,5.79,15.88A15.65335,15.65335,0,0,1,10.01543,18.84a15.043,15.043,0,0,1,1.83618-6.46082A15.93355,15.93355,0,0,1,19.678,10.30933H46.9998a2,2,0,1,0,0-4H19.23711c-.56226,0-1.11524.03881-1.66553.0863A16.36543,16.36543,0,0,1,26.0855,4H61.66558a1.96168,1.96168,0,0,0,1.41992-.59A2.0011,2.0011,0,0,0,61.66558,0h-36.03A19.624,19.624,0,0,0,8.94683,9.32562,19.2142,19.2142,0,0,0,.014,26.28656C.40679,36.69672,9.29082,44.782,19.70854,44.782h36.4419a20.93616,20.93616,0,0,0,4.33765,11.62091,2.00076,2.00076,0,0,0,3.13037-2.49249,16.96171,16.96171,0,0,1-3.48536-9.54614c.16309-.01746.31739-.02466.48243-.04425,1.30713-.15784,2.76025-.31006,4.29541-.42078a20.93943,20.93943,0,0,0,4.35351,12.00366,2.00076,2.00076,0,0,0,3.13037-2.49249,16.962,16.962,0,0,1-3.49072-9.67224,42.56241,42.56241,0,0,1,5.0376.26984,20.93706,20.93706,0,0,0,4.32275,11.25152A2.00076,2.00076,0,0,0,81.39482,52.767a16.94371,16.94371,0,0,1-3.34033-7.98316A23.72713,23.72713,0,0,1,89.36553,51.26c1.97,2.1,5.27,6.38,5.15991,11.39-.07984,3.29-2.26,6.28-6.86987,9.41-.30249.206-.6023.431-.90284.65124l-.75976-.32281a22.43818,22.43818,0,0,0-25.52539,5.86816A21.11237,21.11237,0,0,0,55.69512,96.532a3.78928,3.78928,0,0,0,2.8584,2.88672,3.86224,3.86224,0,0,0,.88378.10254,3.79093,3.79093,0,0,0,2.96094-1.4248l.61035-.75782a21.7557,21.7557,0,0,1,15.05176-8.00488l5.48731-.17419L86.24541,89.15a17.23122,17.23122,0,0,0,9.70019-3,37.59368,37.59368,0,0,0,16.40992-31.97C111.90557,33.88,94.6856,17.37,73.98564,17.37ZM19.23711,40.782A15.25282,15.25282,0,0,1,4.01885,24.77808a14.6838,14.6838,0,0,1,2.06836-6.81464A19.80173,19.80173,0,0,0,6.01543,20.39c.40015,10.62,9.47021,18.87,20.1001,18.87h2.43994a25.516,25.516,0,0,0,2.55786,1.522ZM74.60259,85.8219a25.83167,25.83167,0,0,0-14.70825,9.006l-.373.46387a17.12479,17.12479,0,0,1,3.97363-14.41992A18.40011,18.40011,0,0,1,83.262,75.62976c-.603.57031-3.35937,3.55341-4.0249,4.38013C77.782,81.7265,75.93193,83.97687,74.60259,85.8219ZM93.6856,82.85a13.21607,13.21607,0,0,1-7.45,2.3l-5.66015.02a.09341.09341,0,0,1-.1001-.07c-.02979-.05005-.00977-.07.01025-.1a37.94959,37.94959,0,0,1,9.41993-9.63c3.62988-2.47,8.47-6.46,8.60986-12.62.12012-4.78-2.09985-9.83-6.24-14.23a28.79916,28.79916,0,0,0-17.40991-8.44,45.24627,45.24627,0,0,0-5.75-.35,77.03877,77.03877,0,0,0-8.97.61,62.58789,62.58789,0,0,1-8.51.3c-.84009-.01-1.7-.02-2.58008-.02-7.68994,0-13.8501-1.59-18.35987-4.73q-.435-.3-.84008-.63a18.42243,18.42243,0,0,1-2.08008-1.86,20.80145,20.80145,0,0,1-5.48-12.03H53.15557v9.95a2,2,0,0,0,4,0V21.37H73.98564c18.54981,0,33.96973,14.76,34.36988,32.9A33.60667,33.60667,0,0,1,93.6856,82.85Z"></path></g></g></svg>